<svg width="400" height="400" viewBox="0 0 400 400" fill="none" xmlns="http://www.w3.org/2000/svg"><path fill-rule="evenodd" clip-rule="evenodd" d="M33 2H139.793L153.646 15.8536L153.793 16H154H246H246.207L246.354 15.8536L260.207 2H367V1H260H259.793L259.646 1.14645L245.793 15H154.207L140.354 1.14645L140.207 1H140H33V2ZM1 33L1.00002 367H2.00002L2 33H1ZM398 33V367H399V33H398ZM139.793 398.5H33V399.5H140H140.207L140.354 399.354L154.207 385.5H245.793L259.646 399.354L259.793 399.5H260H367V398.5H260.207L246.354 384.646L246.207 384.5H246H154H153.793L153.646 384.646L139.793 398.5Z" fill="#818181" fill-opacity="0.2"/><path fill-rule="evenodd" clip-rule="evenodd" d="M400 0H397V3H400V0ZM400 397H397V400H400V397ZM0 397H3V400H0V397ZM3 0H0V3H3V0Z" fill="#818181"/></svg>