
<svg width="512" height="512" version="1.1" viewBox="0 0 512 512" xmlns="http://www.w3.org/2000/svg">
  <path d="m251 50.713-75 43.303v19.08l24.193 41.904h-6.6074l-12.586-15h-165l85.781 40h308.44l85.781-40h-165l-12.586 15h-6.6074l24.193-41.904v-19.08l-75-43.303v46.189l28.621 16.523-13.881 24.041-10.121 17.533h-19.238l-24.002-41.574 28.621-16.523zm-239.23 98.35 69.77 99.641 23.33 2.041 82.418 117.71-6.0606 22.621 69.77 99.641v-82.506l-153.45-219.14zm488.45 0-85.781 40-153.45 219.14v82.506l69.77-99.641-6.0606-22.621 82.418-117.71 23.33-2.041zm-388 40.938 107.03 152.86 11.744-6.7812v-40.414l-35.785-20.66h-11.264l-7.002-10-21.008-30 5.207-10 18.219-35zm78.416 0-18.219 35h22.793l60.623-35zm65.76 0 60.623 35h22.793l-18.219-35zm76.471 0 18.219 35 5.207 10-21.008 30-7 10h-11.504l-35.785 20.66v40.414l11.744 6.7812 47.514-67.855h0.23828l59.518-85zm-76.871 11.453-58.105 33.547h-29.744l7.002 10h25.422l32.605-18.824c-6.2694 6.0068-10.18 14.456-10.18 23.824-1e-5 9.3682 3.9103 17.817 10.18 23.824l-32.605-18.824h-18.42l7.002 10h8.7383l58.105 33.547 58.105-33.547h8.7383l7.002-10h-18.42l-32.605 18.824c6.2694-6.0068 10.18-14.456 10.18-23.824 1e-5 -9.3682-3.9103-17.817-10.18-23.824l32.605 18.824h25.422l7.002-10h-29.744zm0 21.547c15.584 2e-5 27 11.416 27 27-2e-5 15.584-11.416 27-27 27-15.584-2e-5 -27.016-11.416-27.016-27s11.432-27 27.016-27zm0 14.5a12.5 12.5 0 0 0-12.5 12.5 12.5 12.5 0 0 0 12.5 12.5 12.5 12.5 0 0 0 12.5-12.5 12.5 12.5 0 0 0-12.5-12.5zm-15 63.934v40.414l-15.986 9.2305 30.986 44.254 30.986-44.254-15.986-9.2305v-40.414l-15 8.6602z"/>
</svg>
